:SAMPLES-PER-SECOND 30
:FULLY-SPECIFIED
:DEGREES
1754
root  -13.9942 39.6197 26.5937 176.868 30.1854 -179.654
RightUpLeg  2.53559 -8.1819 2.00741
RightLeg  10.5024 3.91638 2.60858
RightFoot  -12.7433 -0.0665356 1.62017
RightToes  5.82063e-011 0 -3.6325e-017
Spine  7.47349 -0.813172 9.77174
Spine1  9.6954 0.0257521 -0.149528
HEad  -20.7434 9.41478 -7.84644
LeftShoulder1  -0.15692 3.9288 -30.7774
LeftArm  -1.0261 4.41885 -42.9214
LeftForeArm  18.1068 -31.7164 -5.94638
LeftHand  -0.063676 4.42711 5.37794
RightShoulder  -0.655093 -5.39799 27.8858
RightArm  10.732 5.36772 42.7806
RightForeArm  1.48423 11.4984 5.88456
RightHand  -0.491747 3.44054 -6.72482
LeftUpLeg  -15.5113 -5.36183 2.30997
LeftLeg  28.142 -1.60085 -0.599525
LeftFoot  -5.6174 0.226368 -3.85684
LeftToes  1.54581e-011 7.46816e-011 -4.69922e-011
1755
root  -13.4374 39.6398 26.1553 176.703 30.7047 -179.841
RightUpLeg  4.1652 -7.90676 2.25787
RightLeg  9.51144 4.1632 2.32813
RightFoot  -13.1152 -0.0729985 0.99513
RightToes  5.82063e-011 0 -3.6325e-017
Spine  7.48562 -0.799312 9.78752
Spine1  9.49781 0.219588 -1.33114
HEad  -21.3093 9.60152 -8.24619
LeftShoulder1  -0.115441 3.82103 -30.2857
LeftArm  -1.37879 3.90829 -42.5935
LeftForeArm  18.5701 -32.29 -6.06302
LeftHand  -0.0619669 4.49434 5.52487
RightShoulder  -0.65799 -5.39096 28.1666
RightArm  9.45624 5.36857 43.4086
RightForeArm  0.971121 10.8657 5.69697
RightHand  -0.517961 4.39062 -6.43162
LeftUpLeg  -16.2985 -2.94927 0.787757
LeftLeg  22.6086 -1.819 -0.510077
LeftFoot  -4.83575 0.275178 -4.31941
LeftToes  1.54581e-011 7.46816e-011 -4.69922e-011
1756
root  -12.8405 39.6514 25.7148 176.615 30.9928 -179.932
RightUpLeg  5.94107 -7.58217 2.65248
RightLeg  8.26404 4.10989 2.07153
RightFoot  -13.1704 -0.0864579 0.136089
RightToes  5.82063e-011 0 -3.6325e-017
Spine  7.44871 -0.786302 8.94968
Spine1  9.45224 0.0832395 -1.37537
HEad  -22.8687 9.68473 -9.10144
LeftShoulder1  -0.156507 3.93323 -30.301
LeftArm  -1.51523 3.64056 -42.1795
LeftForeArm  18.2007 -32.4918 -6.13524
LeftHand  -0.049613 4.78563 5.48094
RightShoulder  -0.661374 -5.40443 28.0984
RightArm  9.84236 5.66133 44.2002
RightForeArm  1.36654 10.514 5.87655
RightHand  -0.468174 3.23611 -6.5434
LeftUpLeg  -16.593 0.104031 -0.893777
LeftLeg  16.375 -1.62535 -0.208879
LeftFoot  -3.37761 0.373779 -5.07454
LeftToes  1.54581e-011 7.46816e-011 -4.69922e-011
1757
root  -12.228 39.6112 25.2386 176.591 31.3449 -179.884
RightUpLeg  7.8195 -7.00287 3.31299
RightLeg  7.0102 3.63707 1.57375
RightFoot  -13.8276 -0.0867935 0.329009
RightToes  5.82063e-011 0 -3.6325e-017
Spine  7.48533 -0.575366 8.31164
Spine1  9.23278 0.235442 -1.52076
HEad  -23.1228 9.0617 -9.19
LeftShoulder1  -0.0789294 3.72177 -30.1091
LeftArm  -1.96697 4.21023 -42.2646
LeftForeArm  18.1067 -32.3802 -6.1126
LeftHand  -0.0646154 4.50095 6.05588
RightShoulder  -0.679929 -5.43813 28.4634
RightArm  11.4084 5.46135 44.2316
RightForeArm  1.54898 10.7023 6.27253
RightHand  -0.468106 3.91928 -6.10091
LeftUpLeg  -16.4744 3.48816 -2.34241
LeftLeg  10.0114 -0.0486129 -0.337396
LeftFoot  -2.09133 0.477649 -5.75301
LeftToes  1.54581e-011 7.46816e-011 -4.69922e-011
1758
root  -11.6179 39.5453 24.6954 176.618 31.581 -179.612
RightUpLeg  9.58455 -6.51554 4.0704
RightLeg  6.20404 3.00833 1.30555
RightFoot  -14.1193 -0.111547 -0.670633
RightToes  5.82063e-011 0 -3.6325e-017
Spine  7.22279 -0.496175 8.13126
Spine1  9.57287 0.367362 -1.92395
HEad  -23.4725 8.78887 -9.5791
LeftShoulder1  -0.087456 3.74413 -30.1903
LeftArm  -1.66271 4.60084 -42.3174
LeftForeArm  17.0748 -31.7721 -6.0195
LeftHand  -0.0377158 5.10402 6.71561
RightShoulder  -0.680578 -5.45331 28.2247
RightArm  12.8845 4.80686 45.0234
RightForeArm  2.07053 11.3424 6.51935
RightHand  -0.490231 3.57029 -6.60609
LeftUpLeg  -15.8249 2.86157 -2.46175
LeftLeg  3.80987 6.47207 -1.3643
LeftFoot  -1.25197 0.572115 -6.38701
LeftToes  1.54581e-011 7.46816e-011 -4.69922e-011
1759
root  -10.9683 39.4255 24.0994 176.57 31.8399 -179.33
RightUpLeg  11.2794 -5.99878 4.93086
RightLeg  5.91919 2.35683 0.931517
RightFoot  -14.6181 -0.146335 -1.63603
RightToes  5.82063e-011 0 -3.6325e-017
Spine  7.15778 -0.461151 7.76075
Spine1  9.61187 0.440824 -2.17411
HEad  -24.4134 8.95843 -10.3038
LeftShoulder1  -0.138824 3.88248 -30.527
LeftArm  -0.613662 5.09443 -41.8959
LeftForeArm  15.4332 -30.4718 -5.79533
LeftHand  -0.0318989 5.22123 7.12832
RightShoulder  -0.745423 -5.60455 28.8213
RightArm  14.7139 4.63633 45.2999
RightForeArm  2.82496 11.3664 6.94469
RightHand  -0.478612 4.11327 -6.10616
LeftUpLeg  -14.8688 1.85148 -2.53597
LeftLeg  -1.55478 13.1689 -2.62137
LeftFoot  -0.652656 0.658181 -6.99485
LeftToes  1.54581e-011 7.46816e-011 -4.69922e-011
